<?xml version="1.0" encoding="UTF-8" standalone="no"?>


<!-- Uploaded to: SVG Repo, www.svgrepo.com, Generator: SVG Repo Mixer Tools -->
<svg 
   xmlns:dc="http://purl.org/dc/elements/1.1/"
   xmlns:cc="http://creativecommons.org/ns#"
   xmlns:rdf="http://www.w3.org/1999/02/22-rdf-syntax-ns#"
   xmlns:svg="http://www.w3.org/2000/svg"
   xmlns="http://www.w3.org/2000/svg"
   xmlns:sodipodi="http://sodipodi.sourceforge.net/DTD/sodipodi-0.dtd"
   xmlns:inkscape="http://www.inkscape.org/namespaces/inkscape"
   width="30"
   height="30"
   viewBox="0 0 30 30"
   version="1.1"
   id="svg822"
   inkscape:version="0.92.4 (f8dce91, 2019-08-02)"
   sodipodi:docname="bluetooth-a2dp.svg">
  <defs
     id="defs816" />
  <sodipodi:namedview
     id="base"
     pagecolor="#ffffff"
     bordercolor="#666666"
     borderopacity="1.0"
     inkscape:pageopacity="0.0"
     inkscape:pageshadow="2"
     inkscape:zoom="17.833333"
     inkscape:cx="15"
     inkscape:cy="15"
     inkscape:document-units="px"
     inkscape:current-layer="layer1"
     showgrid="true"
     units="px"
     inkscape:window-width="1366"
     inkscape:window-height="713"
     inkscape:window-x="0"
     inkscape:window-y="0"
     inkscape:window-maximized="1"
     inkscape:lockguides="true">
    <inkscape:grid
       type="xygrid"
       id="grid816" />
  </sodipodi:namedview>
  <metadata
     id="metadata819">
    <rdf:RDF>
      <cc:Work
         rdf:about="">
        <dc:format>image/svg+xml</dc:format>
        <dc:type
           rdf:resource="http://purl.org/dc/dcmitype/StillImage" />
        <dc:title>
</dc:title>
      </cc:Work>
    </rdf:RDF>
  </metadata>
  <g
     inkscape:label="Layer 1"
     inkscape:groupmode="layer"
     id="layer1"
     transform="translate(0,-289.0625)">
    <path
       style="color:#000000;font-style:normal;font-variant:normal;font-weight:normal;font-stretch:normal;font-size:medium;line-height:normal;font-family:sans-serif;font-variant-ligatures:normal;font-variant-position:normal;font-variant-caps:normal;font-variant-numeric:normal;font-variant-alternates:normal;font-feature-settings:normal;text-indent:0;text-align:start;text-decoration:none;text-decoration-line:none;text-decoration-style:solid;text-decoration-color:#000000;letter-spacing:normal;word-spacing:normal;text-transform:none;writing-mode:lr-tb;direction:ltr;text-orientation:mixed;dominant-baseline:auto;baseline-shift:baseline;text-anchor:start;white-space:normal;shape-padding:0;clip-rule:nonzero;display:inline;overflow:visible;visibility:visible;opacity:1;isolation:auto;mix-blend-mode:normal;color-interpolation:sRGB;color-interpolation-filters:linearRGB;solid-color:#000000;solid-opacity:1;vector-effect:none;fill:#000000;fill-opacity:1;fill-rule:nonzero;stroke:none;stroke-width:2;stroke-linecap:butt;stroke-linejoin:miter;stroke-miterlimit:4;stroke-dasharray:none;stroke-dashoffset:0;stroke-opacity:1;color-rendering:auto;image-rendering:auto;shape-rendering:auto;text-rendering:auto;enable-background:accumulate"
       d="m 11.00484,292.06352 v 0.56055 2.4375 6.5625 0.0312 l -5.6230471,-5.62305 c -0.502273,1.1071 -0.310673,2.46472 0.59375,3.36914 l 3.9550781,3.95508 0.671051,0.71049 -0.671051,0.70162 -3.9550781,3.95508 c -0.904423,0.90443 -1.096023,2.26203 -0.59375,3.36915 l 5.6230471,-5.62305 v 0.0312 6.5625 2.4375 0.56055 l 2.046875,-2.21485 v -0.002 l 2.976562,-2.97656 c 1.162982,-1.16298 1.162981,-3.07921 0,-4.24219 l -1.855468,-1.85737 c 0,0 -0.514036,-0.46332 -0.761449,-0.70508 l 0.761449,-0.70702 1.855468,-1.85742 c 1.162981,-1.16298 1.162982,-3.07921 0,-4.24219 l -2.976562,-2.97646 v -0.002 z m 2.046875,5.04492 1.5625,1.5625 c 0.403968,0.40397 0.403968,1.0101 0,1.41406 l -1.5625,1.56446 v -0.0254 z m 0,9.36719 1.5625,1.56445 c 0.403968,0.40397 0.403968,1.0101 0,1.41406 l -1.5625,1.5625 v -4.51562 z"
       id="rect973"
       inkscape:connector-curvature="0"
       sodipodi:nodetypes="ccccccscccsccccccccscccccsccccsccccccsccc" />
    <path
       style="fill:#000000;fill-opacity:1;stroke:none;stroke-width:2;stroke-miterlimit:4;stroke-dasharray:none;stroke-opacity:1"
       d="m 22.390988,296.53516 -1.404297,1.40429 c 1.26527,1.26527 2.044922,3.01616 2.044922,4.95508 0,1.93892 -0.779652,3.68981 -2.044922,4.95508 l 1.404297,1.4043 c 1.63016,-1.63016 2.640625,-3.88002 2.640625,-6.35938 0,-2.47936 -1.010465,-4.72921 -2.640625,-6.35937 z m -2.121094,2.12109 -1.40625,1.40625 c 0.722377,0.72238 1.167969,1.72154 1.167969,2.83203 0,1.11049 -0.445592,2.10966 -1.167969,2.83203 l 1.40625,1.40625 c 1.087267,-1.08726 1.761719,-2.58735 1.761719,-4.23828 0,-1.65093 -0.674452,-3.15101 -1.761719,-4.23828 z"
       id="rect858"
       inkscape:connector-curvature="0"
       sodipodi:nodetypes="ccsccscccsccac" />
  </g>
</svg>